<svg width="20" height="16" viewBox="0 0 20 16" fill="none" xmlns="http://www.w3.org/2000/svg">
<path fill-rule="evenodd" clip-rule="evenodd" d="M19.3714 0.322415C20.0677 0.854313 20.2067 1.85753 19.6818 2.56317L10.844 14.4441C10.511 14.8905 10.0861 15.2607 9.60075 15.5269C9.1154 15.7932 8.57944 15.9511 8.02907 15.9903C7.4787 16.0296 6.92624 15.9493 6.4089 15.7547C5.89155 15.5601 5.42103 15.2556 5.02939 14.8612L0.465371 10.2604C-0.152847 9.63717 -0.155449 8.62412 0.459559 7.99766C1.07457 7.3712 2.07429 7.36856 2.69251 7.99177L7.25531 12.5914C7.25538 12.5915 7.25524 12.5913 7.25531 12.5914C7.32634 12.6629 7.41249 12.7189 7.50778 12.7547C7.60318 12.7906 7.7054 12.8055 7.8074 12.7982C7.9094 12.791 8.00831 12.7617 8.09741 12.7128C8.18629 12.6641 8.26311 12.5971 8.32311 12.5168C8.32325 12.5166 8.32297 12.517 8.32311 12.5168L17.1601 0.636995C17.685 -0.0686411 18.675 -0.209484 19.3714 0.322415Z" fill="#00983D"/>
</svg>
